<?xml version="1.0" encoding="UTF-8" standalone="no"?>
<svg width="50px" height="50px" viewBox="0 0 50 50" version="1.1" xmlns="http://www.w3.org/2000/svg" xmlns:xlink="http://www.w3.org/1999/xlink">
    <!-- Generator: sketchtool 39.1 (31720) - http://www.bohemiancoding.com/sketch -->
    <title>7B08F191-BC34-4784-A2FC-E79A5D06404B</title>
    <desc>Created with sketchtool.</desc>
    <defs></defs>
    <g id="Advertising" stroke="none" stroke-width="1" fill="none" fill-rule="evenodd">
        <g id="Advertising-–-Billboard-Ad" transform="translate(-15.000000, -603.000000)">
            <g id="Masthead" transform="translate(0.000000, 416.000000)">
                <g id="Play" transform="translate(15.000000, 187.000000)">
                    <path d="M24.8530429,0 C11.1516177,0 0,11.1453859 0,24.8391544 C0,38.5329223 11.1516177,49.6783088 24.8530429,49.6783088 C38.5544674,49.6783088 49.7060858,38.5329223 49.7060858,24.8391544 C49.7060858,11.1453859 38.5544674,0 24.8530429,0 L24.8530429,0 Z" id="Shape" fill-opacity="0.5" fill="#000000"></path>
                    <path d="M24.8530429,0 C11.1516177,0 0,11.1453859 0,24.8391544 C0,38.5329223 11.1516177,49.6783088 24.8530429,49.6783088 C38.5544674,49.6783088 49.7060858,38.5329223 49.7060858,24.8391544 C49.7060858,11.1453859 38.5544674,0 24.8530429,0 L24.8530429,0 Z M24.8530429,2.75990605 C37.0800596,2.75990605 46.9446365,12.6189705 46.9446365,24.8391544 C46.9446365,37.0593383 37.0800596,46.9184028 24.8530429,46.9184028 C12.6260262,46.9184028 2.76144921,37.0593383 2.76144921,24.8391544 C2.76144921,12.6189705 12.6260262,2.75990605 24.8530429,2.75990605 L24.8530429,2.75990605 Z" id="Shape" fill="#FFFFFF"></path>
                    <polygon id="Shape" fill="#FFFFFF" points="17.9494199 13.7995302 17.9494199 35.8787786 36.7270228 24.8394339"></polygon>
                </g>
            </g>
        </g>
    </g>
</svg>